<?xml version="1.0" encoding="UTF-8" standalone="no"?>
<svg
   xmlns:dc="http://purl.org/dc/elements/1.1/"
   xmlns:cc="http://creativecommons.org/ns#"
   xmlns:rdf="http://www.w3.org/1999/02/22-rdf-syntax-ns#"
   xmlns:svg="http://www.w3.org/2000/svg"
   xmlns="http://www.w3.org/2000/svg"
   id="svg20"
   version="1.1"
   fill-rule="evenodd"
   viewBox="0 0 141.732 141.732"
   height="141.732pt"
   width="141.732pt">
  <metadata
     id="metadata26">
    <rdf:RDF>
      <cc:Work
         rdf:about="">
        <dc:format>image/svg+xml</dc:format>
        <dc:type
           rdf:resource="http://purl.org/dc/dcmitype/StillImage" />
      </cc:Work>
    </rdf:RDF>
  </metadata>
  <defs
     id="defs24" />
  <g
     id="g18">
    <g
       id="g16">
      <path
         id="path2"
         d="M 11.8549 88.1308L 11.8549 127.472C 11.8549 128.124 12.0519 128.321 12.704 128.321L 55.7242 128.321C 56.3764 128.321 56.5733 128.124 56.5733 127.472L 56.5733 88.4139C 56.5733 76.7533 45.8768 66.5444 34.2675 66.5575C 22.8646 66.5703 11.8549 76.6788 11.8549 88.1308z"
         style="stroke:none; fill:#000000" />
      <path
         id="path4"
         d="M 92.2348 52.1863L 79.2155 52.1863L 104.405 87.5648L 129.877 52.1863L 116.858 52.1863L 116.858 13.4116L 92.2348 13.4116L 92.2348 52.1863z"
         style="stroke:none; fill:#000000" />
      <path
         id="path6"
         d="M 56.8564 77.0927C 57.056 77.3953 59.6701 81.0425 59.6701 85.8629C 59.6701 93.9157 59.6701 108.467 59.6701 117.299C 59.651 118.501 59.6701 119.538 60.5357 119.547L 76.6683 119.547L 76.6683 93.2254C 76.6683 82.0183 68.2209 74.4453 56.8564 77.0927z"
         style="stroke:none; fill:#000000" />
      <path
         id="path8"
         d="M 77.2343 82.4703C 77.5407 83.0101 79.7682 85.393 79.7682 88.5069C 79.7682 91.1477 79.7682 104.712 79.7805 108.793C 79.7682 112.687 78.9529 112.188 90.8196 112.188L 90.8196 91.5272C 90.8196 85.3391 82.7451 79.7379 77.2343 82.4703z"
         style="stroke:none; fill:#000000" />
      <path
         id="path10"
         d="M 34.271 34.6957C 42.1085 34.6957 48.4702 41.0574 48.4702 48.8948C 48.4702 56.7323 42.1085 63.0939 34.271 63.0939C 26.4336 63.0939 20.0719 56.7323 20.0719 48.8948C 20.0719 41.0574 26.4336 34.6957 34.271 34.6957z"
         style="stroke:none; fill:#000000" />
      <path
         id="path12"
         d="M 61.219 53.7317C 66.5444 53.7317 70.8669 58.0542 70.8669 63.3796C 70.8669 68.7049 66.5444 73.0275 61.219 73.0275C 55.8937 73.0275 51.5711 68.7049 51.5711 63.3796C 51.5711 58.0542 55.8937 53.7317 61.219 53.7317z"
         style="stroke:none; fill:#000000" />
      <path
         id="path14"
         d="M 80.3588 65.3463C 84.0269 65.3463 87.0043 68.3237 87.0043 71.9919C 87.0043 75.66 84.0269 78.6374 80.3588 78.6374C 76.6907 78.6374 73.7133 75.66 73.7133 71.9919C 73.7133 68.3237 76.6907 65.3463 80.3588 65.3463z"
         style="stroke:none; fill:#000000" />
    </g>
  </g>
</svg>
